<svg version="1.1" viewBox="0.0 0.0 960.0 720.0" fill="none" stroke="none" stroke-linecap="square" stroke-miterlimit="10" xmlns:xlink="http://www.w3.org/1999/xlink" xmlns="http://www.w3.org/2000/svg"><clipPath id="p.0"><path d="m0 0l960.0 0l0 720.0l-960.0 0l0 -720.0z" clip-rule="nonzero"/></clipPath><g clip-path="url(#p.0)"><path fill="#000000" fill-opacity="0.0" d="m0 0l960.0 0l0 720.0l-960.0 0z" fill-rule="evenodd"/><path fill="#000000" fill-opacity="0.0" d="m92.055115 478.9029l184.12598 -326.5827" fill-rule="evenodd"/><path stroke="#000000" stroke-width="8.0" stroke-linejoin="round" stroke-linecap="butt" d="m92.055115 478.9029l184.12598 -326.5827" fill-rule="evenodd"/><path fill="#000000" fill-opacity="0.0" d="m466.8504 539.17847l-189.60632 -385.76376" fill-rule="evenodd"/><path stroke="#000000" stroke-width="8.0" stroke-linejoin="round" stroke-linecap="butt" d="m466.8504 539.17847l-189.60632 -385.76376" fill-rule="evenodd"/><path fill="#000000" fill-opacity="0.0" d="m516.16534 526.84955c13.720581 7.075989 16.500854 -51.78122 30.685059 -47.39917c19.176636 5.924408 30.342468 56.420593 49.31494 49.093872c14.303833 -5.5237427 18.889221 -52.910614 32.876648 -45.708527c15.751709 8.110565 21.852356 46.258575 38.35431 49.093903c5.4467773 0.93585205 11.403931 3.3353271 16.440979 0c12.105286 -8.015686 9.000671 -46.79831 21.916016 -50.784546c18.754395 -5.788452 32.26837 51.661316 50.41205 42.31909c11.283142 -5.8096924 12.448181 -37.022095 24.11023 -40.62845c17.787537 -5.500519 31.421692 30.94217 49.315002 35.55246c10.9823 2.8296509 14.40387 -29.681732 25.204712 -33.857727c19.181335 -7.4162292 36.00836 25.287354 53.69812 38.933716" fill-rule="evenodd"/><path stroke="#0000ff" stroke-width="12.0" stroke-linejoin="round" stroke-linecap="butt" d="m516.16534 526.84955c13.720581 7.075989 16.500854 -51.78122 30.685059 -47.39917c19.176636 5.924408 30.342468 56.420593 49.31494 49.093872c14.303833 -5.5237427 18.889221 -52.910614 32.876648 -45.708527c15.751709 8.110565 21.852356 46.258575 38.35431 49.093903c5.4467773 0.93585205 11.403931 3.3353271 16.440979 0c12.105286 -8.015686 9.000671 -46.79831 21.916016 -50.784546c18.754395 -5.788452 32.26837 51.661316 50.41205 42.31909c11.283142 -5.8096924 12.448181 -37.022095 24.11023 -40.62845c17.787537 -5.500519 31.421692 30.94217 49.315002 35.55246c10.9823 2.8296509 14.40387 -29.681732 25.204712 -33.857727c19.181335 -7.4162292 36.00836 25.287354 53.69812 38.933716" fill-rule="evenodd"/><path fill="#000000" fill-opacity="0.0" d="m181.91864 325.48032l31.779526 48.217834l53.698166 -72.328064l37.26245 67.944885l26.299225 25.204712l36.165344 -48.217834" fill-rule="evenodd"/><path stroke="#000000" stroke-width="2.0" stroke-linejoin="round" stroke-linecap="butt" d="m181.91864 325.48032l31.779526 48.217834l53.698166 -72.328064l37.26245 67.944885l26.299225 25.204712l36.165344 -48.217834" fill-rule="evenodd"/><path fill="#000000" fill-opacity="0.0" d="m472.3281 278.42258l185.19687 0l0 182.61417l-185.19687 0z" fill-rule="evenodd"/><path fill="#000000" d="m512.3593 392.9682q-0.0625 -2.375 -0.0625 -3.546875q0 -6.96875 1.96875 -12.03125q1.453125 -3.8125 4.671875 -7.703125q2.359375 -2.828125 8.5 -8.25q6.15625 -5.421875 8.0 -8.640625q1.84375 -3.21875 1.84375 -7.03125q0 -6.90625 -5.390625 -12.125q-5.390625 -5.234375 -13.21875 -5.234375q-7.5624695 0 -12.6249695 4.734375q-5.0625 4.734375 -6.640625 14.78125l-12.15625 -1.4375q1.640625 -13.484375 9.75 -20.640625q8.125 -7.171875 21.484344 -7.171875q14.125 0 22.53125 7.703125q8.421875 7.6875 8.421875 18.59375q0 6.3125 -2.953125 11.640625q-2.953125 5.328125 -11.5625 12.953125q-5.796875 5.125 -7.578125 7.5625q-1.765625 2.421875 -2.625 5.578125q-0.84375 3.15625 -0.984375 10.265625l-11.375 0zm-0.7187195 23.734375l0 -13.484375l13.4843445 0l0 13.484375l-13.4843445 0z" fill-rule="nonzero"/><path fill="#000000" fill-opacity="0.0" d="m668.4941 83.28886c-15.303589 -3.8304749 -33.596436 -12.503296 -47.123352 -4.385826c-3.7717285 2.2633896 -9.832092 5.595833 -8.766418 9.863518c1.0802612 4.3262863 11.658569 8.968369 7.6693115 10.960632c-3.725647 1.8605804 -7.9300537 -2.6991882 -12.05249 -3.2887115c-12.301086 -1.7591019 -25.112305 -1.5075378 -37.262512 1.0971069c-15.658386 3.3567123 -43.58203 21.16166 -33.97113 33.971138c35.729614 47.620407 115.80713 33.97374 175.34125 33.97374c28.895203 0 57.679565 -4.383194 86.57477 -4.383194c19.278076 0 45.417114 5.556717 56.986877 -9.863525c20.938965 -27.907486 1.319458 -88.69403 -31.779541 -99.72703c-18.613953 -6.2046585 -41.105713 11.856106 -51.50653 28.493439c-2.772705 4.435234 -4.92157 9.285141 -6.5774536 14.246719c-0.4625244 1.3859253 1.0327148 5.416748 0 4.3832016c-11.3255005 -11.334557 -17.87445 -29.440186 -32.876587 -35.06824c-21.631409 -8.114998 -65.753296 -1.184803 -65.753296 21.918636" fill-rule="evenodd"/><path stroke="#999999" stroke-width="12.0" stroke-linejoin="round" stroke-linecap="butt" d="m668.4941 83.28886c-15.303589 -3.8304749 -33.596436 -12.503296 -47.123352 -4.385826c-3.7717285 2.2633896 -9.832092 5.595833 -8.766418 9.863518c1.0802612 4.3262863 11.658569 8.968369 7.6693115 10.960632c-3.725647 1.8605804 -7.9300537 -2.6991882 -12.05249 -3.2887115c-12.301086 -1.7591019 -25.112305 -1.5075378 -37.262512 1.0971069c-15.658386 3.3567123 -43.58203 21.16166 -33.97113 33.971138c35.729614 47.620407 115.80713 33.97374 175.34125 33.97374c28.895203 0 57.679565 -4.383194 86.57477 -4.383194c19.278076 0 45.417114 5.556717 56.986877 -9.863525c20.938965 -27.907486 1.319458 -88.69403 -31.779541 -99.72703c-18.613953 -6.2046585 -41.105713 11.856106 -51.50653 28.493439c-2.772705 4.435234 -4.92157 9.285141 -6.5774536 14.246719c-0.4625244 1.3859253 1.0327148 5.416748 0 4.3832016c-11.3255005 -11.334557 -17.87445 -29.440186 -32.876587 -35.06824c-21.631409 -8.114998 -65.753296 -1.184803 -65.753296 21.918636" fill-rule="evenodd"/></g></svg>